# xmcd CD database file
#
# Track frame offsets:
#	150
#	16153
#	35037
#	51529
#	66498
#	84398
#	102607
#	122112
#	147801
#	170899
#	192010
#	207234
#	218938
#	235800
#	251956
#	265571
#	288029
#	300268
#	315297
#	333902
#
# Disc length: 4645 seconds
#
# Revision: 1
# Processed by: cddbd v1.5.2PL0 Copyright (c) Steve Scherf et al.
# Submitted via: CDex 1.99.1
#
DISCID=25122314
DTITLE=100 Hits Funk and Soul - Unknown CD for MusicBrainz and FreeDB
DYEAR=2013
DGENRE=Funk
TTITLE0=Never knew love like this (alexander O'Neal feat. Cherelle)
TTITLE1=Just be good to me (The S.O.S. Band)
TTITLE2=Don't take away the music (Tavares)
TTITLE3=Queen of clubs (KC and the Sunshine Band)
TTITLE4=Ha Cha Cha (Brass Construction)
TTITLE5=Three steps from true love (The Reflections)
TTITLE6=Can't stop dancin' (Mystic Merlin)
TTITLE7=The sound of music (Dayton)
TTITLE8=Peace of mind (Rance Allen Group)
TTITLE9=Love is on the one (Xavier)
TTITLE10=Shake your body (Gary Bartz)
TTITLE11=Funkier than a mosquita's tweeter (Ike and Tina Turner)
TTITLE12=Don't call me nigger, whitey (Gene Harris)
TTITLE13=Expressway to your heart (Margo Thunder)
TTITLE14=You've made me so very happy (Lou Rawls)
TTITLE15=Brother Louie (Hot Chocolate)
TTITLE16=I'm gonna tear your playhouse down (Ann Peebles)
TTITLE17=Last tango in Paris (Merlena Shaw)
TTITLE18=Anni Mae (Natalie Cole)
TTITLE19=I'm still in love with you (Al Green)
EXTD=YEAR: 2013
EXTT0=
EXTT1=
EXTT2=
EXTT3=
EXTT4=
EXTT5=
EXTT6=
EXTT7=
EXTT8=
EXTT9=
EXTT10=
EXTT11=
EXTT12=
EXTT13=
EXTT14=
EXTT15=
EXTT16=
EXTT17=
EXTT18=
EXTT19=
PLAYORDER=
